# xmcd CD database file generated by Grip 2.95
# 
# Track frame offsets:
#       150
#       16858
#       34700
#       53801
#       71684
#       90940
#       108216
#       126504
#       144295
#       163731
#       182400
#       201790
# 
# Disc length: 2959 seconds
# 
# Revision: 3
# Processed by: cddbd v1.4PL0 Copyright (c) Steve Scherf et al.
# Submitted via: Grip 2.95
# 
DISCID=970b8d0c
DTITLE=J-Walk - suddenly
DYEAR=2002
DGENRE=Ballad
TTITLE0=Just Falling Love
TTITLE1=(2)아니
TTITLE2=(3)Suddenly
TTITLE3=(4)헤어지던날
TTITLE4=(5)Secret
TTITLE5=(6)Come on
TTITLE6=(7)이대로 사랑할께요
TTITLE7=(8)Big Show
TTITLE8=(9)나의 첫사랑이자 마지막 사랑
TTITLE9=(10)꺼꾸로 가는 시계
TTITLE10=(11)슬픈영화처럼
TTITLE11=(12)Suddenly Classic Version
EXTD=
EXTT0=
EXTT1=
EXTT2=
EXTT3=
EXTT4=
EXTT5=
EXTT6=
EXTT7=
EXTT8=
EXTT9=
EXTT10=
EXTT11=
PLAYORDER=
